<?xml version="1.0" encoding="utf-8"?>
<!-- Generator: Adobe Illustrator 22.0.1, SVG Export Plug-In . SVG Version: 6.00 Build 0)  -->
<svg version="1.1" id="Ebene_1" xmlns="http://www.w3.org/2000/svg" xmlns:xlink="http://www.w3.org/1999/xlink" x="0px" y="0px"
	 viewBox="0 0 178.2 88.6" style="enable-background:new 0 0 178.2 88.6;" xml:space="preserve">
<style type="text/css">
	.st0{clip-path:url(#SVGID_2_);}
	.st1{clip-path:url(#SVGID_4_);}
	.st2{fill:#1D1D1B;}
</style>
<title>type</title>
<g>
	<defs>
		<rect id="SVGID_1_" width="178.2" height="88.6"/>
	</defs>
	<clipPath id="SVGID_2_">
		<use xlink:href="#SVGID_1_"  style="overflow:visible;"/>
	</clipPath>
	<g class="st0">
		<defs>
			<rect id="SVGID_3_" x="-2.1" y="-11.3" width="178.2" height="88.5"/>
		</defs>
		<clipPath id="SVGID_4_">
			<use xlink:href="#SVGID_3_"  style="overflow:visible;"/>
		</clipPath>
		<g class="st1">
			<path class="st2" d="M175.8,32c0.3-1.8,0.4-3.7,0.4-5.5c0-11.7-6.1-21.1-19.9-21.1c-14.2,0-22.1,10.6-22.1,25.1
				c0,16.6,8.4,24.1,23.4,24.1c5.8,0,11.5-1,16.9-3l-1.1-9.4c-4.3,1.9-9,2.9-13.8,3c-8.7,0-13.1-4.3-13-13.1L175.8,32L175.8,32z
				 M164,23.7h-17.4c0.7-5.7,4.2-9.4,9.2-9.4S164.2,17.8,164,23.7 M128.4,27.5c0-14-6.1-22.1-17.3-22.1c-7.1,0-12.2,3.3-14.8,8.9
				h-0.2c0.3-2.6,0.5-5.3,0.5-7.9H85.3v70.2h12.2V53.9c2,0.3,4,0.4,6.1,0.4C119.9,54.3,128.4,44,128.4,27.5 M115.7,28.8
				c0,11.7-5,16-11.9,16c-2.1,0-4.3-0.3-6.3-0.9V30.9c0-8.1,3.8-15.5,10.2-15.5C113.1,15.5,115.7,20,115.7,28.8 M61,58L80.4,6.4h-13
				l-5.6,16.1c-1.5,4.5-3.5,10.7-4.6,15h-0.1c-1-4.3-2.3-8.9-3.7-13L47,6.4H33.5l17.4,47.3l-1.6,4.6c-2.5,7-5.1,8.8-9.1,8.8
				c-2.2,0-4.4-0.3-6.5-1l-0.8,10.4c2.2,0.5,4.4,0.8,6.7,0.8C50.4,77.2,55.4,72.8,61,58 M19.7,54.6c3.3,0,6.6-0.4,9.9-1.2v-9.8
				c-1.9,0.5-3.9,0.7-5.9,0.8c-4.2,0-5.6-1.7-5.6-7.8V15.8h11.5V6.4H18.2v-17.7L6-8.1V6.4h-8.1v9.4h8.2v23.9
				C6.1,50.8,9.3,54.6,19.7,54.6"/>
		</g>
	</g>
</g>
</svg>
