<?xml version="1.0" encoding="utf-8"?>
<!-- Generator: Adobe Illustrator 22.0.1, SVG Export Plug-In . SVG Version: 6.00 Build 0)  -->
<svg version="1.1" id="Ebene_1" xmlns="http://www.w3.org/2000/svg" xmlns:xlink="http://www.w3.org/1999/xlink" x="0px" y="0px"
	 viewBox="0 0 314.1 66.4" style="enable-background:new 0 0 314.1 66.4;" xml:space="preserve">
<style type="text/css">
	.st0{clip-path:url(#SVGID_2_);}
	.st1{clip-path:url(#SVGID_4_);}
</style>
<g>
	<defs>
		<rect id="SVGID_1_" width="314.1" height="66.4"/>
	</defs>
	<clipPath id="SVGID_2_">
		<use xlink:href="#SVGID_1_"  style="overflow:visible;"/>
	</clipPath>
	<g class="st0">
		<g>
			<defs>
				<rect id="SVGID_3_" width="314.1" height="71.3"/>
			</defs>
			<clipPath id="SVGID_4_">
				<use xlink:href="#SVGID_3_"  style="overflow:visible;"/>
			</clipPath>
			<path class="st1" d="M314.1,65.6c0-3.2-2.5-5.7-5.7-5.7s-5.8,2.6-5.8,5.7c0,3.1,2.6,5.7,5.8,5.7
				C311.5,71.3,314.1,68.7,314.1,65.6 M293.8,52.1V23h-9.1v29.6c0,8.1-3,11.1-10,11.1c-7.9,0-9.8-4.2-9.8-10.2V23h-9.1v31
				c0,9.1,3.4,17.2,18.4,17.2C286.6,71.3,293.8,65.1,293.8,52.1 M248.7,65.6c0-3.2-2.5-5.7-5.7-5.7s-5.8,2.6-5.8,5.7
				c0,3.1,2.6,5.7,5.8,5.7C246.1,71.3,248.7,68.7,248.7,65.6 M228.9,54.5c0.2-1.5,0.3-2.9,0.3-4.1c0-8.7-4.5-15.6-14.7-15.6
				c-10.5,0-16.4,7.9-16.4,18.5c0,12.3,6.2,17.8,17.3,17.8c4.4,0,8.8-0.8,12.5-2.3l-0.8-7c-3,1.4-6.7,2.2-10.2,2.2
				c-6.5,0-9.7-3.2-9.6-9.7h21.6L228.9,54.5L228.9,54.5z M220.2,48.3h-12.9c0.5-4.2,3.1-7,6.8-7C217.9,41.4,220.3,44,220.2,48.3
				 M162.5,70.2L177.3,23h-12.4l-5.3,18.4c-1.4,4.7-2.4,8.9-3.3,13.7h-0.2c-1-4.7-2.1-8.9-3.8-14.3L146.5,23h-11.8L129,41.4
				c-1.3,4.2-2.5,8.5-3.4,13.7h-0.1c-1.1-4.9-2.5-9.6-3.7-14.3l-5-17.9h-13.3L118,70.2h12.5l6-19.7c1.2-3.9,2.3-7.5,3.2-11.9h0.1
				c0.9,4,1.6,7.3,2.7,10.6l6.9,21H162.5z M102.2,45.7c0-16.2-8.6-23.7-22.1-23.7C65.8,22,56,32.7,56,47.4
				c0,16.8,8.6,23.8,22.1,23.8C92.2,71.2,102.2,60.5,102.2,45.7 M89.7,46.4c0,9.6-4.6,14.5-10.6,14.5c-7,0-10.6-4.9-10.6-14.6
				s5.3-13.9,10.7-13.9C86.5,32.3,89.7,37.2,89.7,46.4 M37.1,70.2h12V1.6C42.8,0.7,36.4,0,31.5,0C14.9,0,8.3,7.5,8.3,18.4V23H0v9.4
				h8.3v37.8h12.1V32.4h10.3V23H20.3v-4c0-6.3,3.4-9.1,10.2-9.1c2.3,0,4.4,0.2,6.6,0.6V70.2z"/>
		</g>
	</g>
</g>
</svg>
