<svg id="Ebene_1" data-name="Ebene 1" xmlns="http://www.w3.org/2000/svg" xmlns:xlink="http://www.w3.org/1999/xlink" viewBox="0 0 178.25 88.55"><defs><style>.cls-1{fill:none;}.cls-2{clip-path:url(#clip-path);}.cls-3{fill:#1d1d1b;}</style><clipPath id="clip-path" transform="translate(0 0)"><rect class="cls-1" width="178.25" height="88.54"/></clipPath></defs><title>type</title><g class="cls-2"><path class="cls-3" d="M177.88,43.34a38.72,38.72,0,0,0,.37-5.53c0-11.67-6.06-21.11-19.86-21.11-14.17,0-22.14,10.64-22.14,25.1,0,16.62,8.35,24.14,23.39,24.14a47,47,0,0,0,16.91-3l-1.12-9.39a33.66,33.66,0,0,1-13.76,2.95c-8.72,0-13.13-4.28-13-13.09h29.21ZM166.16,35H148.79c.67-5.69,4.2-9.39,9.23-9.39s8.35,3.53,8.14,9.39m-35.61,3.82c0-14-6.06-22.06-17.28-22.06-7.11,0-12.18,3.32-14.84,8.85h-.2a58.16,58.16,0,0,0,.49-7.9H87.42V87.88H99.6V65.28a40,40,0,0,0,6.06.37c16.33,0,24.89-10.35,24.89-26.8m-12.71,1.33c0,11.68-5,16-11.89,16a21.2,21.2,0,0,1-6.35-.87V42.22c0-8.06,3.78-15.5,10.18-15.5,5.48.08,8.06,4.61,8.06,13.46M63.12,69.35,82.48,17.74h-13L63.86,33.82c-1.53,4.45-3.53,10.72-4.57,15h-.08c-1-4.28-2.29-8.93-3.7-13L49.15,17.74H35.65L53.06,65l-1.62,4.57c-2.45,7-5.11,8.85-9.1,8.85a21.68,21.68,0,0,1-6.48-1L35.07,87.8a29.54,29.54,0,0,0,6.65.75c10.84,0,15.79-4.45,21.4-19.2M21.86,65.94a42.5,42.5,0,0,0,9.88-1.25v-9.8a23.93,23.93,0,0,1-5.9.75c-4.19,0-5.6-1.71-5.6-7.81V27.17h11.5V17.74H20.28V0L8.1,3.24V17.78H0v9.39H8.19V51.11c0,11,3.24,14.83,13.67,14.83" transform="translate(0 0)"/></g></svg>