<?xml version="1.0" encoding="utf-8"?>
<!-- Generator: Adobe Illustrator 22.0.1, SVG Export Plug-In . SVG Version: 6.00 Build 0)  -->
<svg version="1.1" id="Ebene_1" xmlns="http://www.w3.org/2000/svg" xmlns:xlink="http://www.w3.org/1999/xlink" x="0px" y="0px"
	 viewBox="0 0 1192.7 225" style="enable-background:new 0 0 1192.7 225;" xml:space="preserve">
<path d="M52.2,170.9c8,0,16.5-1.2,23.8-3v-23.6c-4.1,1.1-9.4,1.8-14.2,1.8c-10.1,0-13.5-4.1-13.5-18.8V77.6H76V54.9H48.4V12.2
	L19.1,20v35H-0.4v22.6h19.7v57.6C19.3,161.7,27.1,170.9,52.2,170.9 M151.5,179.1l46.6-124.2h-31.3l-13.5,38.7
	c-3.7,10.7-8.5,25.8-11,36.1h-0.2c-2.5-10.3-5.5-21.5-8.9-31.3l-15.3-43.5H85.4l41.9,113.7l-3.9,11c-5.9,16.9-12.3,21.3-21.9,21.3
	c-5.5,0-10.3-0.9-15.6-2.5L84,223.5c4.8,1.2,11,1.8,16,1.8C126.1,225.3,138,214.6,151.5,179.1 M283.2,108.9
	c0,28.1-12.1,38.6-28.6,38.6c-5.9,0-10.7-0.7-15.3-2.1v-31.6c0-19.4,9.1-37.3,24.5-37.3C277,76.7,283.2,87.6,283.2,108.9
	 M313.8,105.7c0-33.6-14.6-53.1-41.6-53.1c-17.1,0-29.3,8-35.7,21.3H236c0.9-5.9,1.2-13.5,1.2-19H210v168.8h29.3v-54.4
	c4.8,0.7,9.1,0.9,14.6,0.9C293.2,170.2,313.8,145.3,313.8,105.7 M399.5,96.5h-41.8c1.6-13.7,10.1-22.6,22.2-22.6
	C392.2,73.9,400,82.4,399.5,96.5 M427.7,116.5c0.7-4.8,0.9-9.4,0.9-13.3c0-28.1-14.6-50.8-47.8-50.8c-34.1,0-53.3,25.6-53.3,60.4
	c0,40,20.1,58.1,56.3,58.1c14.2,0,28.6-2.5,40.7-7.3l-2.7-22.6c-9.8,4.6-22,7.1-33.1,7.1c-21,0-31.6-10.3-31.3-31.5L427.7,116.5
	L427.7,116.5z M526.2,168.6h29V3.5c-15.3-2.3-30.9-3.9-42.5-3.9c-40,0-56,18.1-56,44.4v11h-19.9v22.6h19.9v91h29v-91h24.9V54.9
	h-24.9v-9.6c0-15.1,8.2-22,24.5-22c5.5,0,10.5,0.5,16,1.4V168.6z M652.6,111.2c0,23.1-11,34.8-25.4,34.8
	c-16.9,0-25.4-11.9-25.4-35.2s12.8-33.4,25.8-33.4C644.9,77.3,652.6,89.2,652.6,111.2 M682.8,109.6c0-39.1-20.8-57-53.1-57
	c-34.5,0-58.1,25.6-58.1,61.1c0,40.5,20.8,57.2,53.1,57.2C658.8,170.9,682.8,145.3,682.8,109.6 M827.8,168.6l35.7-113.7h-29.9
	l-12.8,44.4c-3.4,11.2-5.7,21.3-8,32.9h-0.4c-2.3-11.2-5-21.3-9.1-34.3l-13.9-43H761l-13.7,44.4c-3.2,10.1-5.9,20.4-8.2,32.9h-0.2
	c-2.7-11.7-5.9-23.1-8.9-34.3l-12.1-43h-32l34.8,113.7h30.2l14.4-47.3c3-9.4,5.5-18.1,7.8-28.6h0.2c2.1,9.6,3.9,17.6,6.4,25.4
	l16.5,50.5H827.8z M966.7,115.9h-31c1.1-10.2,7.5-16.8,16.4-16.8C961.3,99.2,967.1,105.4,966.7,115.9 M987.6,130.7
	c0.5-3.5,0.7-6.9,0.7-9.9c0-20.8-10.8-37.6-35.3-37.6c-25.3,0-39.4,18.9-39.4,44.6c0,29.7,14.8,42.9,41.7,42.9
	c10.5,0,21.2-1.8,30.1-5.4l-2-16.8c-7.2,3.4-16.2,5.2-24.6,5.2c-15.6,0-23.3-7.6-23.2-23.4h52.1V130.7z M1035.3,157.4
	c0-7.6-6.1-13.8-13.7-13.8c-7.6,0-13.9,6.2-13.9,13.8s6.2,13.8,13.9,13.8C1029.1,171.2,1035.3,165,1035.3,157.4 M1144,124.9V55
	h-21.9v71.2c0,19.5-7.1,26.6-24,26.6c-19,0-23.7-10.2-23.7-24.6V55h-22v74.6c0,21.9,8.2,41.5,44.2,41.5
	C1126.7,171.1,1144,156.2,1144,124.9 M1192.7,157.4c0-7.6-6.1-13.8-13.7-13.8s-13.9,6.2-13.9,13.8s6.2,13.8,13.9,13.8
	C1186.6,171.2,1192.7,165,1192.7,157.4"/>
</svg>
